<svg width="40" height="40" viewBox="0 0 40 40" fill="none" xmlns="http://www.w3.org/2000/svg">
<path opacity="0.4" d="M21.6272 5.18936L25.338 12.6465C25.6114 13.1868 26.1331 13.562 26.7349 13.6453L35.0701 14.8593C35.5568 14.9276 35.9986 15.1844 36.297 15.5763C36.5921 15.9632 36.7188 16.4534 36.6471 16.9353C36.5887 17.3355 36.4004 17.7057 36.112 17.9892L30.0723 23.8438C29.6306 24.2524 29.4305 24.8577 29.5372 25.4497L31.0242 33.6805C31.1826 34.6744 30.5241 35.6115 29.5372 35.7999C29.1305 35.865 28.7137 35.7966 28.347 35.6098L20.912 31.7362C20.3602 31.4577 19.7084 31.4577 19.1566 31.7362L11.7217 35.6098C10.8082 36.0951 9.67628 35.7649 9.16784 34.8644C8.97947 34.5059 8.91278 34.0974 8.97446 33.6989L10.4614 25.4663C10.5681 24.876 10.3664 24.2674 9.92633 23.8589L3.8867 18.0075C3.16822 17.3139 3.14655 16.1716 3.83836 15.4529C3.85336 15.4379 3.87003 15.4212 3.8867 15.4046C4.17343 15.1127 4.55018 14.9276 4.95693 14.8793L13.2921 13.6637C13.8922 13.5786 14.414 13.2068 14.689 12.6632L18.2665 5.18936C18.5849 4.54904 19.245 4.1505 19.9618 4.16718H20.1852C20.807 4.24221 21.3488 4.62741 21.6272 5.18936Z" fill="#4D77FF"/>
<path d="M19.9867 31.5285C19.6639 31.5385 19.3493 31.6253 19.0665 31.7804L11.6679 35.6452C10.7626 36.0773 9.67928 35.742 9.17173 34.8763C8.98369 34.5227 8.91546 34.1173 8.9787 33.7203L10.4564 25.5053C10.5563 24.9081 10.3566 24.3009 9.92224 23.8806L3.87991 18.0308C3.16268 17.3286 3.14937 16.1759 3.85162 15.457C3.8616 15.447 3.86992 15.4387 3.87991 15.4303C4.16613 15.1468 4.53556 14.9599 4.93328 14.9016L13.2754 13.6739C13.8795 13.5972 14.4037 13.2202 14.6699 12.6731L18.296 5.1052C18.6404 4.4947 19.3011 4.13107 20 4.16943C19.9867 4.66484 19.9867 31.1916 19.9867 31.5285Z" fill="#4D77FF"/>
</svg>
